# xmcd
#
# Track frame offsets: 
#        150
#        12840
#        25417
#        39102
#        50532
#        62242
#        75852
#        91107
#        104457
#        116570
#        128752
#        142245
#        153420
#        166122
#        178692
#        192622
#        212242
#        227475
#        238430
#        251307
#        264660
#        277302
#
# Disc length: 3897 seconds
#
# Revision: 2
# Processed by: cddbd v1.4PL0 Copyright (c) Steve Scherf et al.
# Submitted via: ExactAudioCopy v0.90b3
#
DISCID=350f3716
DTITLE=Conway Twitty - Reader's Digest (His Greatest and Finest Performa
DTITLE=nces) - Disc 2
DYEAR=1900
DGENRE=Country
TTITLE0=I Can't Stop Loving You
TTITLE1=She Needs Someone To Hold Her (When She Cries)
TTITLE2=Baby's Gone
TTITLE3=Louisiana Woman, Mississippi Man
TTITLE4=I'm Not Through Loving You Yet
TTITLE5=You've Never Been This Far Before
TTITLE6=Touch The Hand
TTITLE7=There's A Honky Tonk Angel (Who'll Take Me Back In)
TTITLE8=As Soon As I Hang Up The Phone
TTITLE9=Linda On My Mind
TTITLE10=Feelins'
TTITLE11=This Time I've Hurt Her More Than She Loves Me
TTITLE12=I See The Want To In Your Eyes
TTITLE13=The Letter
TTITLE14=The Games That Daddies Play
TTITLE15=Don't Cry Joni
TTITLE16=Play, Guitar, Play
TTITLE17=I Can't Believe She Give It All To Me
TTITLE18=I Can't Love You Enough
TTITLE19=After All The Good Is Gone
TTITLE20=I've Already Loved You In My Mind
TTITLE21=Georgia Keeps Pulling On My Ring
EXTD=
EXTT0=
EXTT1=
EXTT2=
EXTT3=With Loretta Lynn
EXTT4=
EXTT5=
EXTT6=
EXTT7=
EXTT8=With Loretta Lynn
EXTT9=
EXTT10=With Loretta Lynn
EXTT11=
EXTT12=
EXTT13=With Loretta Lynn
EXTT14=
EXTT15=With Joni Lee Twitty
EXTT16=
EXTT17=
EXTT18=With Loretta Lynn
EXTT19=
EXTT20=
EXTT21=
PLAYORDER=
